<svg viewBox="-2.64 -2.64 29.28 29.28" fill="none" xmlns="http://www.w3.org/2000/svg">
    <g id="SVGRepo_bgCarrier" stroke-width="0"></g>
    <g id="SVGRepo_tracerCarrier" stroke-linecap="round" stroke-linejoin="round"></g>
    <g id="SVGRepo_iconCarrier">
        <path fill-rule="evenodd" clip-rule="evenodd"
            d="M5.4 2h13.2A3.4 3.4 0 0 1 22 5.4v13.2a3.4 3.4 0 0 1-3.4 3.4H5.4A3.4 3.4 0 0 1 2 18.6V5.4A3.4 3.4 0 0 1 5.4 2ZM7 5a1 1 0 0 1 1 1v8a1 1 0 1 1-2 0V6a1 1 0 0 1 1-1Zm5 0a1 1 0 0 1 1 1v6a1 1 0 1 1-2 0V6a1 1 0 0 1 1-1Zm6 1a1 1 0 1 0-2 0v10a1 1 0 1 0 2 0V6Z"
            fill="#ffffff"></path>
    </g>
</svg>